<?xml version="1.0" encoding="UTF-8" standalone="no"?>
<!-- Created with Inkscape (http://www.inkscape.org/) -->

<svg
   xmlns:dc="http://purl.org/dc/elements/1.1/"
   xmlns:cc="http://creativecommons.org/ns#"
   xmlns:rdf="http://www.w3.org/1999/02/22-rdf-syntax-ns#"
   xmlns:svg="http://www.w3.org/2000/svg"
   xmlns="http://www.w3.org/2000/svg"
   xmlns:sodipodi="http://sodipodi.sourceforge.net/DTD/sodipodi-0.dtd"
   xmlns:inkscape="http://www.inkscape.org/namespaces/inkscape"
   width="78.791664mm"
   height="78.791664mm"
   viewBox="0 0 78.791664 78.791664"
   version="1.1"
   id="svg8"
   inkscape:version="0.92.3 (2405546, 2018-03-11)"
   sodipodi:docname="gust_logo.svg"
   inkscape:export-filename="C:\Users\jdlarson1\OneDrive - The University of Alabama\Documents - Personal\branding\software\gust_logo_mix.png"
   inkscape:export-xdpi="400"
   inkscape:export-ydpi="400">
  <defs
     id="defs2" />
  <sodipodi:namedview
     id="base"
     pagecolor="#ffffff"
     bordercolor="#666666"
     borderopacity="1.0"
     inkscape:pageopacity="0.0"
     inkscape:pageshadow="2"
     inkscape:zoom="3.959798"
     inkscape:cx="146.17618"
     inkscape:cy="169.90913"
     inkscape:document-units="mm"
     inkscape:current-layer="layer1"
     showgrid="true"
     inkscape:window-width="1853"
     inkscape:window-height="1145"
     inkscape:window-x="1987"
     inkscape:window-y="27"
     inkscape:window-maximized="1"
     inkscape:snap-grids="false"
     fit-margin-top="5"
     fit-margin-left="5"
     fit-margin-right="5"
     fit-margin-bottom="5"
     inkscape:pagecheckerboard="true">
    <inkscape:grid
       type="xygrid"
       id="grid815"
       originx="-66.437498"
       originy="-116.70833" />
  </sodipodi:namedview>
  <metadata
     id="metadata5">
    <rdf:RDF>
      <cc:Work
         rdf:about="">
        <dc:format>image/svg+xml</dc:format>
        <dc:type
           rdf:resource="http://purl.org/dc/dcmitype/StillImage" />
        <dc:title></dc:title>
      </cc:Work>
    </rdf:RDF>
  </metadata>
  <g
     inkscape:label="Layer 1"
     inkscape:groupmode="layer"
     id="layer1"
     transform="translate(-66.437496,-101.50001)">
    <circle
       style="opacity:1;fill:#ffffff;fill-opacity:0.94117647;stroke:none;stroke-width:0.79374999;stroke-linejoin:bevel;stroke-miterlimit:4;stroke-dasharray:none;stroke-dashoffset:0;stroke-opacity:1"
       id="path849"
       cx="105.83333"
       cy="140.89584"
       r="34.395832" />
    <rect
       style="opacity:1;fill:#828a8f;fill-opacity:1;stroke:#828a8f;stroke-width:0.26458332;stroke-miterlimit:4;stroke-dasharray:none;stroke-dashoffset:0;stroke-opacity:1"
       id="rect1001"
       width="8.9296923"
       height="9.7801237"
       x="92.604164"
       y="131.63542"
       ry="0" />
    <path
       id="text823"
       style="font-style:normal;font-variant:normal;font-weight:normal;font-stretch:normal;font-size:9.8777771px;line-height:1.25;font-family:'Bauhaus 93';-inkscape-font-specification:'Bauhaus 93, ';letter-spacing:0px;word-spacing:0px;fill:#000000;fill-opacity:1;stroke:none;stroke-width:0.27794114"
       d="m 83.041693,128.41788 c -2.868727,0 -5.235402,0.92149 -7.100747,2.76483 -1.865346,1.83657 -2.798199,4.21173 -2.798199,7.12583 0,1.87046 0.602522,3.31396 1.807924,4.33051 1.212139,1.01653 2.885922,1.52483 5.020633,1.52482 1.077445,0 2.120879,-0.11841 3.130995,-0.35561 1.016849,-0.23719 1.97346,-0.51166 2.869085,-0.8234 l 1.717015,-7.47165 h -6.939486 l -0.656394,2.85633 h 3.000039 l -0.687239,2.96851 c -0.14815,0.0135 -0.309768,0.0237 -0.484855,0.0305 -0.175086,0.006 -0.336706,0.0105 -0.484855,0.0105 -1.488237,0 -2.561963,-0.28463 -3.221907,-0.8539 -0.659931,-0.57604 -0.99027,-1.47061 -0.99027,-2.68369 0,-0.87423 0.134862,-1.71137 0.404225,-2.51106 0.269363,-0.79968 0.643105,-1.49094 1.121229,-2.07376 0.505054,-0.61671 1.114673,-1.10465 1.828487,-1.46383 0.713804,-0.36596 1.511803,-0.54894 2.393972,-0.54894 0.868698,0 1.663141,0.15248 2.38369,0.45745 0.720548,0.29819 1.484687,0.8334 2.292781,1.60597 h 0.43453 l 0.858778,-3.5474 c -0.996649,-0.52183 -1.959804,-0.8746 -2.88911,-1.05757 -0.922572,-0.18976 -1.926133,-0.28427 -3.010321,-0.28427 z m 31.930097,0.0201 c -2.3098,0 -4.13156,0.45388 -5.46491,1.36199 -1.32661,0.90134 -1.98974,2.11105 -1.98974,3.62909 0,0.60315 0.10398,1.12159 0.31277,1.55532 0.21549,0.43372 0.52863,0.81699 0.9394,1.14906 0.41079,0.3253 0.90574,0.60636 1.48488,0.84356 0.58586,0.23719 1.24598,0.45727 1.98001,0.66057 0.66667,0.18975 1.20858,0.35954 1.62609,0.50864 0.42426,0.14232 0.75759,0.28766 1.00002,0.43676 0.24243,0.14908 0.40404,0.30158 0.48486,0.45744 0.0875,0.1491 0.13149,0.32905 0.13149,0.53913 0,0.56249 -0.25908,0.99604 -0.7776,1.301 -0.51852,0.29819 -1.33018,0.44711 -2.43456,0.44711 -1.07746,0 -2.08403,-0.17283 -3.02007,-0.51844 -0.93603,-0.35241 -1.75122,-0.84695 -2.44484,-1.48398 h -0.42424 l -0.77761,3.62908 c 0.73401,0.33207 1.60271,0.61011 2.6061,0.83375 1.01011,0.22365 2.15809,0.33546 3.44431,0.33546 1.15826,0 2.19567,-0.1017 3.11151,-0.30496 0.91583,-0.20331 1.73403,-0.52559 2.45458,-0.96608 0.68688,-0.4134 1.22525,-0.95218 1.61583,-1.61632 0.39056,-0.66413 0.58604,-1.43315 0.58604,-2.30739 0,-1.04366 -0.3601,-1.87063 -1.08065,-2.48056 -0.72054,-0.60993 -1.92258,-1.14156 -3.6061,-1.59562 -0.62627,-0.16942 -1.17174,-0.33207 -1.63639,-0.48794 -0.46466,-0.16265 -0.80509,-0.31211 -1.02058,-0.44765 -0.24916,-0.14908 -0.41378,-0.30157 -0.49459,-0.45744 -0.0808,-0.15588 -0.12121,-0.35204 -0.12121,-0.58924 0,-0.51506 0.27273,-0.91866 0.81818,-1.21006 0.54547,-0.29141 1.31616,-0.43676 2.31281,-0.43676 1.01685,0 1.95324,0.16569 2.80848,0.49775 0.86196,0.32529 1.55539,0.73192 2.08066,1.21987 h 0.41397 l 0.73756,-3.48641 c -0.68688,-0.31175 -1.52528,-0.55929 -2.51519,-0.74227 -0.98318,-0.18297 -2.03015,-0.27446 -3.14127,-0.27446 z m -20.163704,0.27446 c 0.0017,2.9e-4 0.0027,2.3e-4 0.0043,5.6e-4 0.04526,-2.2e-4 0.09057,8.5e-4 0.135826,0 0.02671,-2.7e-4 0.05338,-9e-5 0.08009,-5.6e-4 z m 0.680202,0 c 0.0584,0.002 0.112458,0.004 0.165588,0.007 0.01397,-0.002 0.02789,-0.005 0.04167,-0.007 z m 27.332092,0 -0.66668,2.92767 h 4.68675 l -2.7982,12.20895 h 3.8994 l 2.79767,-12.20895 h 4.68729 l 0.66667,-2.92767 z m -30.209835,0.17481 c -0.0061,-0.001 -0.01266,0.002 -0.01895,0.002 -0.0096,8.3e-4 -0.01897,0.002 -0.02868,0.002 -0.0072,-1.5e-4 -0.01077,-0.003 -0.01623,-0.003 l -0.0027,0.0131 c 0.02544,-5.6e-4 0.05086,-8.4e-4 0.0763,-0.001 -0.0057,-0.003 -0.01214,-0.005 -0.01784,-0.008 0.0027,-0.002 0.01125,-0.004 0.0082,-0.005 z m 3.588252,1.16051 c -0.08767,9e-5 -0.175331,2.6e-4 -0.262991,5.6e-4 8.31e-4,0.001 0.0014,0.002 0.0022,0.003 0.0839,-2.7e-4 0.172855,-0.002 0.260827,-0.003 z m -0.510829,10e-4 c -0.02814,5e-5 -0.05628,5.6e-4 -0.08442,5.6e-4 0.02931,2.8e-4 0.05897,0.001 0.0882,0.002 -0.0014,-8.3e-4 -0.0025,-0.001 -0.0038,-0.002 z m -0.25704,0.54893 c -0.02793,0.002 -0.05892,0.006 -0.08712,0.009 0.02939,-0.002 0.05406,-0.005 0.08171,-0.007 8.32e-4,-2.9e-4 0.0046,-0.002 0.0054,-0.002 z m 8.417332,0.18952 c 2.4e-4,0.001 2.7e-4,0.002 5.5e-4,0.003 0.008,-2.4e-4 0.0159,-2.7e-4 0.0238,-5.4e-4 -0.009,-5.6e-4 -0.0154,-0.001 -0.0244,-0.002 z m -9.887589,0.65512 c 0.01552,0.002 0.03103,0.003 0.04653,0.005 -0.0017,-5.6e-4 -0.0032,-5.6e-4 -0.0049,-0.001 -0.0058,-5.6e-4 -0.03931,-0.004 -0.04167,-0.004 z m -2.013013,0.043 -1.521667,6.59977 c -0.05388,0.25075 -0.104391,0.52824 -0.151516,0.8332 -0.04714,0.30498 -0.07089,0.60691 -0.07089,0.9051 0,1.45028 0.508604,2.53441 1.525454,3.25277 1.016837,0.71159 2.514823,1.06738 4.494647,1.06738 2.222252,0 3.919254,-0.47118 5.090984,-1.41318 1.17174,-0.94878 2.00358,-2.47003 2.49517,-4.56413 l 0.94049,-4.07619 c -0.003,-8.3e-4 -0.007,-0.001 -0.0105,-0.002 -0.006,-0.001 -0.0118,-0.004 -0.0179,-0.006 -0.12322,-0.0154 -0.2417,-0.0537 -0.36363,-0.0763 -0.0486,-0.007 -0.0944,-0.013 -0.14178,-0.0256 -0.0163,-0.004 -0.0315,-0.0113 -0.0476,-0.0163 -0.0452,-0.0142 -0.0922,-0.0217 -0.13853,-0.0316 -0.14575,-0.0481 -0.30142,-0.0579 -0.44536,-0.11328 -0.0128,-0.005 -0.0345,-0.0128 -0.0536,-0.0191 -0.14789,-0.002 -0.2948,-0.009 -0.42479,-0.0191 -0.48032,-0.036 -0.95561,-0.11139 -1.43022,-0.19114 -0.11105,-0.0256 -0.31199,-0.0685 -0.43398,-0.10946 -0.0272,-0.002 -0.0546,-0.003 -0.0817,-0.005 -0.0106,-8.3e-4 -0.15232,-0.009 -0.18074,-0.0294 l -1.120145,4.85329 c -0.22897,1.00299 -0.60927,1.74152 -1.14126,2.2159 -0.525256,0.47439 -1.215682,0.71176 -2.070913,0.71176 -0.882167,0 -1.514992,-0.16263 -1.898834,-0.48794 -0.377111,-0.33207 -0.565484,-0.81699 -0.565484,-1.45403 0,-0.14908 0.0131,-0.3351 0.04004,-0.55874 0.03367,-0.23042 0.07408,-0.44087 0.121213,-0.63062 l 1.379889,-5.98929 c -0.03667,-0.009 -0.07376,-0.0173 -0.110391,-0.0267 -0.02347,-0.007 -0.06966,-0.0223 -0.106061,-0.0332 -0.02391,-0.005 -0.04807,-0.009 -0.07197,-0.0141 -0.04343,-0.008 -0.09429,-0.0206 -0.139611,-0.0218 -0.03754,-0.001 -0.163728,0.0256 -0.183984,-0.0234 -0.0098,-0.0238 -0.0077,-0.0494 -0.0027,-0.0757 -0.01341,-0.006 -0.02825,-0.009 -0.04059,-0.0174 -0.02836,-0.0188 -0.04706,-0.0496 -0.06818,-0.0762 -0.0028,-0.003 -0.0068,-0.0149 -0.0027,-0.0131 8.32e-4,2.8e-4 0.0014,0.001 0.0022,0.002 -8.31e-4,-0.004 -0.0017,-0.007 -0.0027,-0.0115 -0.0271,-0.004 -0.03642,-0.006 -0.06386,-0.0114 -0.01663,-0.001 -0.03354,-0.003 -0.04978,-0.003 -0.230519,-0.0105 -0.273073,-0.007 -0.514619,-0.0403 -0.241308,-0.0328 -0.228721,-0.0375 -0.295456,-0.054 -0.011,0.004 -0.01845,0.0105 -0.03842,0.0105 -0.02852,-2.8e-4 -0.05669,-0.005 -0.08495,-0.009 -0.01695,0.004 -0.03754,-0.001 -0.05844,-0.007 -0.01407,-0.002 -0.02812,-0.005 -0.04221,-0.007 -0.171342,-0.008 0.02006,0.0134 -0.291128,-0.0294 -0.239998,-0.0409 -0.481152,-0.0755 -0.722953,-0.10454 -8.31e-4,0.009 0.0025,0.0189 -5.54e-4,0.0278 -0.008,0.0234 -0.04869,-0.004 -0.07306,-0.007 -0.05794,-0.007 -0.115796,-0.0152 -0.173702,-0.0223 -0.08497,-0.0106 -0.169586,-0.0234 -0.254874,-0.0311 -0.12991,-0.0116 -0.257715,-0.0146 -0.386368,-0.0191 z m 3.073091,0.33818 c 8.31e-4,8.4e-4 0.0017,0.002 0.0027,0.003 0.01189,-0.003 0.0062,-0.003 -0.0027,-0.003 z m 0.189399,0.15956 c -0.02047,0.002 -0.01939,0.004 -0.0022,0.008 5.54e-4,-0.003 0.0014,-0.006 0.0022,-0.008 z m 9.665182,1.41863 c -0.001,1.1e-4 -0.003,2.9e-4 -0.004,5.6e-4 0.007,7e-5 0.0148,5.6e-4 0.0222,5.6e-4 -2.1e-4,-2.7e-4 -2.7e-4,-8.3e-4 -5.6e-4,-0.001 -0.005,1.7e-4 -0.0116,-2.8e-4 -0.0173,0 z"
       inkscape:connector-curvature="0" />
    <rect
       style="opacity:0;fill:#000000;fill-opacity:0.94117647;stroke:none;stroke-width:0.79374999;stroke-linejoin:bevel;stroke-miterlimit:4;stroke-dasharray:none;stroke-dashoffset:0;stroke-opacity:1"
       id="rect829"
       width="74.083336"
       height="74.083336"
       x="68.791664"
       y="103.85416" />
    <path
       style="fill:none;stroke:#9e1b32;stroke-width:1.38970578;stroke-linecap:butt;stroke-linejoin:miter;stroke-miterlimit:4;stroke-dasharray:none;stroke-opacity:1"
       d="m 99.052845,130.78014 1.158105,-5.45336"
       id="path832"
       inkscape:connector-curvature="0" />
    <path
       style="opacity:1;fill:#9e1b32;fill-opacity:1;stroke:#9e1b32;stroke-width:0.27794161;stroke-miterlimit:4;stroke-dasharray:none;stroke-dashoffset:0;stroke-opacity:1"
       id="path834"
       sodipodi:type="arc"
       sodipodi:cx="124.0596"
       sodipodi:cy="101.44807"
       sodipodi:rx="1.2"
       sodipodi:ry="1.2"
       sodipodi:start="0.0042292993"
       sodipodi:end="6.2824174"
       sodipodi:open="true"
       d="m 125.25959,101.45314 a 1.2,1.2 0 0 1 -1.20357,1.19492 1.2,1.2 0 0 1 -1.19642,-1.20207 1.2,1.2 0 0 1 1.20058,-1.19792 1.2,1.2 0 0 1 1.19942,1.19908"
       transform="matrix(0.97764349,0.21026936,-0.20773088,0.97818602,0,0)" />
    <path
       style="opacity:1;fill:none;fill-opacity:1;stroke:#9e1b32;stroke-width:1.322927;stroke-miterlimit:4;stroke-dasharray:none;stroke-dashoffset:0;stroke-opacity:1"
       id="path836"
       sodipodi:type="arc"
       sodipodi:cx="159.01457"
       sodipodi:cy="-22.432741"
       sodipodi:rx="4"
       sodipodi:ry="4"
       sodipodi:start="2.0943951"
       sodipodi:end="5.7595865"
       d="m 157.01457,-18.96864 a 4,4 0 0 1 -1.93923,-4.158694 4,4 0 0 1 3.24464,-3.244638 4,4 0 0 1 4.15869,1.939231"
       transform="matrix(0.50918682,0.86065602,-0.85779991,0.51398376,0,0)"
       sodipodi:open="true" />
    <path
       style="opacity:1;fill:none;fill-opacity:1;stroke:#9e1b32;stroke-width:1.32292712;stroke-miterlimit:4;stroke-dasharray:none;stroke-dashoffset:0;stroke-opacity:1"
       id="path840"
       sodipodi:type="arc"
       sodipodi:cx="-21.748724"
       sodipodi:cy="-159.11899"
       sodipodi:rx="6.8000002"
       sodipodi:ry="6.8000002"
       sodipodi:start="0.52359878"
       sodipodi:end="4.1887902"
       d="m -15.859751,-155.71899 a 6.8000002,6.8000002 0 0 1 -7.069781,3.29669 6.8000002,6.8000002 0 0 1 -5.515885,-5.51588 6.8000002,6.8000002 0 0 1 3.296693,-7.06978"
       transform="matrix(-0.85552586,0.51776008,-0.51295312,-0.85841662,0,0)"
       sodipodi:open="true" />
    <path
       style="fill:#828a8f;fill-opacity:1;stroke:#9e1b32;stroke-width:2.91838217;stroke-linecap:butt;stroke-linejoin:miter;stroke-miterlimit:4;stroke-dasharray:none;stroke-opacity:1"
       d="m 89.464941,162.27121 6.9265,-16.72951 6.926509,16.72951 z"
       id="path844"
       inkscape:connector-curvature="0"
       sodipodi:nodetypes="cccc" />
    <path
       style="fill:none;stroke:#9e1b32;stroke-width:2.91838217;stroke-linecap:butt;stroke-linejoin:miter;stroke-miterlimit:4;stroke-dasharray:none;stroke-opacity:1"
       d="M 104.98154,133.05059 92.260279,130.13164"
       id="path853"
       inkscape:connector-curvature="0"
       sodipodi:nodetypes="cc" />
    <rect
       style="opacity:1;fill:#828a8f;fill-opacity:1;stroke:#9e1b32;stroke-width:2.77812505;stroke-miterlimit:4;stroke-dasharray:none;stroke-dashoffset:0;stroke-opacity:1"
       id="rect997"
       width="13.323661"
       height="10.772322"
       x="108.77649"
       y="148.44391" />
    <flowRoot
       xml:space="preserve"
       id="flowRoot828"
       style="font-style:italic;font-variant:normal;font-weight:normal;font-stretch:normal;font-size:10.66666698px;line-height:1.25;font-family:Symbol;-inkscape-font-specification:'Symbol Italic';letter-spacing:0px;word-spacing:0px;fill:#000000;fill-opacity:1;stroke:none"><flowRegion
         id="flowRegion830"><rect
           id="rect832"
           width="65"
           height="40"
           x="280"
           y="497.51968" /></flowRegion><flowPara
         id="flowPara834" /></flowRoot>    <flowRoot
       xml:space="preserve"
       id="flowRoot836"
       style="font-style:italic;font-variant:normal;font-weight:normal;font-stretch:normal;font-size:10.66666698px;line-height:1.25;font-family:Symbol;-inkscape-font-specification:'Symbol Italic';letter-spacing:0px;word-spacing:0px;fill:#000000;fill-opacity:1;stroke:none"><flowRegion
         id="flowRegion838"><rect
           id="rect840"
           width="80"
           height="35"
           x="435"
           y="497.51968" /></flowRegion><flowPara
         id="flowPara842" /></flowRoot>    <path
       id="text823-4"
       transform="scale(0.26458333)"
       style="font-style:normal;font-variant:normal;font-weight:normal;font-stretch:normal;font-size:9.8777771px;line-height:1.25;font-family:'Bauhaus 93';-inkscape-font-specification:'Bauhaus 93, ';letter-spacing:0px;word-spacing:0px;fill:#9e1b32;fill-opacity:1;stroke:none;stroke-width:1.05048621"
       d="m 358.33008,486.47266 c 0.006,10e-4 0.01,5.5e-4 0.0156,0.002 0.17106,-8.3e-4 0.34263,0.003 0.51368,0 0.10092,-10e-4 0.20178,-3e-5 0.30273,-0.002 z m 2.57031,0 c 0.22073,0.008 0.42615,0.014 0.62695,0.0254 0.0528,-0.008 0.10417,-0.0178 0.15625,-0.0254 z m 152.92188,0 c 0.13571,0.20779 0.27036,0.41632 0.40429,0.625 l 0.14258,-0.625 z m -150.23633,5.04687 c -0.33135,3.4e-4 -0.66283,6.7e-4 -0.99414,0.002 0.003,0.004 0.005,0.008 0.008,0.0117 0.3171,-10e-4 0.65383,-0.008 0.98633,-0.0117 z m -1.92969,0.004 c -0.10636,1.9e-4 -0.21396,0.002 -0.32031,0.002 0.11078,10e-4 0.22351,0.004 0.33398,0.008 -0.005,-0.003 -0.0107,-0.004 -0.0156,-0.008 z m -0.97266,2.07422 c -0.10556,0.008 -0.22154,0.0219 -0.32812,0.0332 0.11108,-0.008 0.20409,-0.0178 0.30859,-0.0254 0.003,-10e-4 0.0165,-0.008 0.0195,-0.008 z m 31.81446,0.71875 c 5.8e-4,0.003 8.5e-4,0.007 0.002,0.01 0.0302,-9.1e-4 0.06,-0.003 0.0898,-0.004 -0.034,-0.002 -0.0578,-0.002 -0.0918,-0.006 z m 88.71093,1.16211 c -0.0106,0.004 -0.0518,0.0362 -0.1582,0.11718 0.005,-0.002 0.008,-0.004 0.0137,-0.006 0.0566,-0.0307 0.11522,-0.0573 0.17188,-0.0879 -0.0237,-0.007 -0.0156,-0.0274 -0.0274,-0.0234 z m -126.08203,1.31054 c 0.0587,0.008 0.1172,0.012 0.17578,0.0195 -0.006,-0.002 -0.0111,-0.002 -0.0176,-0.004 -0.0219,-0.002 -0.14929,-0.0156 -0.15821,-0.0156 z m -7.60937,0.17383 -5.75,24.93359 c -0.20364,0.94772 -0.39416,1.99584 -0.57227,3.14844 -0.17816,1.15268 -0.26758,2.29486 -0.26758,3.42188 0,5.48137 1.92242,9.5779 5.76563,12.29297 3.84316,2.68947 9.50353,4.03515 16.98633,4.03515 8.39906,0 14.8136,-1.78148 19.24219,-5.3418 4.42859,-3.58591 7.57174,-9.33529 9.42968,-17.25 l 3.55469,-15.40624 c -0.0113,-0.003 -0.0258,-0.004 -0.0391,-0.008 -0.0227,-0.004 -0.0453,-0.0139 -0.0684,-0.0215 -0.46568,-0.0582 -0.91217,-0.20365 -1.37305,-0.28906 -0.18368,-0.0265 -0.35807,-0.05 -0.53711,-0.0977 -0.0616,-0.0151 -0.11884,-0.0417 -0.17969,-0.0605 -0.17083,-0.0537 -0.34833,-0.0817 -0.52343,-0.11914 -0.55091,-0.18179 -1.13961,-0.21842 -1.6836,-0.42773 -0.0484,-0.0189 -0.12898,-0.0485 -0.20117,-0.0723 -0.55899,-0.008 -1.11417,-0.0341 -1.60547,-0.0723 -1.81534,-0.13607 -3.61241,-0.42124 -5.40625,-0.72266 -0.41968,-0.0968 -1.1796,-0.25925 -1.64062,-0.41406 -0.10281,-0.008 -0.20617,-0.012 -0.3086,-0.0195 -0.0401,-0.003 -0.57618,-0.0342 -0.68359,-0.11133 l -4.23242,18.34375 c -0.8654,3.79083 -2.30381,6.58207 -4.31445,8.375 -1.98522,1.79297 -4.59381,2.68945 -7.82618,2.68945 -3.33417,0 -5.72699,-0.61423 -7.17773,-1.84375 -1.4253,-1.25507 -2.13672,-3.08838 -2.13672,-5.49609 0,-0.56345 0.0486,-1.26608 0.15039,-2.11133 0.12726,-0.87088 0.28087,-1.66565 0.45898,-2.38281 l 5.21485,-22.63672 c -0.1386,-0.034 -0.27757,-0.066 -0.41602,-0.10156 -0.0887,-0.0265 -0.26476,-0.0838 -0.40234,-0.125 -0.0904,-0.0189 -0.18115,-0.0335 -0.27149,-0.0527 -0.16411,-0.0302 -0.35605,-0.0775 -0.52734,-0.082 -0.14188,-0.004 -0.61875,0.0953 -0.69531,-0.0898 -0.037,-0.09 -0.0281,-0.18576 -0.01,-0.28516 -0.0507,-0.0227 -0.10765,-0.0347 -0.15429,-0.0664 -0.10719,-0.071 -0.17799,-0.18657 -0.25782,-0.28711 -0.0106,-0.0113 -0.0247,-0.0576 -0.01,-0.0508 0.003,10e-4 0.005,0.004 0.008,0.008 -0.003,-0.0151 -0.006,-0.026 -0.01,-0.043 -0.10243,-0.0151 -0.13848,-0.0226 -0.24219,-0.043 -0.0629,-0.004 -0.12612,-0.0117 -0.1875,-0.0117 -0.87126,-0.0397 -1.03242,-0.0265 -1.94531,-0.15234 -0.91204,-0.12397 -0.86301,-0.14077 -1.11524,-0.20313 -0.0416,0.0151 -0.071,0.0391 -0.14648,0.0391 -0.1078,-0.001 -0.21351,-0.0199 -0.32032,-0.0352 -0.0641,0.0151 -0.14171,-0.003 -0.2207,-0.0254 -0.0532,-0.008 -0.1069,-0.0198 -0.16016,-0.0274 -0.64759,-0.0302 0.0765,0.0504 -1.0996,-0.11133 -0.90708,-0.15458 -1.81853,-0.28477 -2.73243,-0.39453 -0.003,0.034 0.01,0.0718 -0.002,0.10547 -0.0302,0.0884 -0.18524,-0.016 -0.27734,-0.0273 -0.21899,-0.0265 -0.4374,-0.0572 -0.65625,-0.084 -0.32115,-0.0401 -0.64055,-0.0881 -0.96289,-0.11718 -0.491,-0.0439 -0.97469,-0.0553 -1.46094,-0.0723 z m 11.61523,1.26758 0.0117,0.0117 c 0.0449,-0.0113 0.0219,-0.0117 -0.0117,-0.0117 z m 0.7168,0.60351 c -0.0774,0.008 -0.0722,0.0142 -0.008,0.0293 0.002,-0.0113 0.005,-0.0217 0.008,-0.0293 z m 36.5293,5.36133 c -0.004,4.2e-4 -0.0119,8.5e-4 -0.0156,0.002 0.0265,2.6e-4 0.056,0.002 0.084,0.002 -8e-4,-0.001 -8.2e-4,-0.003 -0.002,-0.004 -0.0189,6.5e-4 -0.0428,-0.001 -0.0645,0 z"
       inkscape:connector-curvature="0" />
    <path
       style="fill:none;stroke:#9e1b32;stroke-width:2.77812505;stroke-linecap:butt;stroke-linejoin:miter;stroke-miterlimit:4;stroke-dasharray:none;stroke-opacity:1"
       d="m 106.4003,162.29874 18.00111,-0.0473"
       id="path843"
       inkscape:connector-curvature="0"
       sodipodi:nodetypes="cc" />
    <path
       style="opacity:1;fill:#000000;fill-opacity:1;stroke:#9e1b32;stroke-width:1.32291663;stroke-miterlimit:4;stroke-dasharray:none;stroke-dashoffset:0;stroke-opacity:1"
       id="path845"
       sodipodi:type="arc"
       sodipodi:cx="105.59773"
       sodipodi:cy="142.9543"
       sodipodi:rx="15.970136"
       sodipodi:ry="15.970136"
       sodipodi:start="1.3089969"
       sodipodi:end="1.8325957"
       sodipodi:open="true"
       d="m 109.73111,158.38027 a 15.970136,15.970136 0 0 1 -8.26675,0" />
  </g>
</svg>
